<svg width="60" height="61" viewBox="0 0 60 61" fill="none" xmlns="http://www.w3.org/2000/svg">
<circle cx="30" cy="30" r="30" fill="#A1252F"/>
<path d="M31.3905 15.2984C35.1896 7.8006 44.3475 4.80215 51.8453 8.6012C52.7379 9.05346 53.0949 10.1437 52.6426 11.0363L45.91 24.3238C44.6619 26.7871 41.6532 27.7722 39.19 26.5241L30.5179 22.1301C29.3802 21.5536 28.9252 20.164 29.5016 19.0263L31.3905 15.2984Z" fill="#F2F2F2"/>
<rect x="28.6622" y="21.9724" width="8.07728" height="9.14979" rx="4.03864" transform="rotate(26.87 28.6622 21.9724)" fill="#F2F2F2"/>
<rect x="48.8972" width="4.96702" height="5.62655" rx="2.48351" transform="rotate(26.87 48.8972 0)" fill="#F2F2F2"/>
<rect x="24.4908" y="30.2897" width="8.07728" height="9.14979" rx="4.03864" transform="rotate(26.87 24.4908 30.2897)" fill="#F2F2F2"/>
<rect x="20.1998" y="38.6194" width="8.07728" height="9.14979" rx="4.03864" transform="rotate(26.87 20.1998 38.6194)" fill="#F2F2F2"/>
<rect x="18.5907" y="49.1794" width="1.41286" height="12.1995" rx="0.706431" transform="rotate(26.87 18.5907 49.1794)" fill="#F2F2F2"/>
</svg>
