<svg width="49" height="49" viewBox="0 0 49 49" fill="none" xmlns="http://www.w3.org/2000/svg">
<path d="M48 26.6171C47.5884 31.0712 45.9168 35.316 43.1808 38.8547C40.4447 42.3934 36.7575 45.0798 32.5505 46.5994C28.3434 48.119 23.7906 48.409 19.4247 47.4355C15.0589 46.462 11.0606 44.2653 7.89763 41.1024C4.73469 37.9394 2.53796 33.9411 1.56447 29.5753C0.590992 25.2094 0.881024 20.6566 2.40063 16.4495C3.92025 12.2425 6.60658 8.55526 10.1453 5.81925C13.684 3.08323 17.9288 1.41162 22.3829 1C19.7751 4.52796 18.5203 8.87471 18.8465 13.2497C19.1728 17.6246 21.0585 21.7372 24.1606 24.8394C27.2628 27.9415 31.3754 29.8272 35.7503 30.1535C40.1253 30.4797 44.472 29.2249 48 26.6171V26.6171Z" stroke="#282828" stroke-linecap="round" stroke-linejoin="round"/>
</svg>
